<svg width="33" height="47" viewBox="0 0 33 47" fill="none" xmlns="http://www.w3.org/2000/svg">
<path d="M28.6985 16.1471C31.0925 14.5737 32.676 11.8647 32.676 8.79322C32.676 3.94451 28.7306 0 23.8819 0H8.79414C3.94543 0 0 3.94451 0 8.79322C0 11.8647 1.5835 14.5737 3.97756 16.1471C1.5835 17.7196 0 20.4285 0 23.5C0 26.5715 1.5835 29.2804 3.97756 30.8538C1.5835 32.4254 0 35.1353 0 38.2068C0 43.0555 3.96654 47 8.84096 47C13.7686 47 17.7783 43.0123 17.7783 38.1113V30.002C19.3407 31.4257 21.4162 32.2932 23.6909 32.2932H23.8819C28.7306 32.2932 32.676 28.3487 32.676 23.5C32.676 20.4285 31.0925 17.7196 28.6985 16.1471ZM17.7783 2.88059H23.8819C27.1425 2.88059 29.7954 5.5326 29.7954 8.79322C29.7954 12.0538 27.1425 14.7068 23.8819 14.7068H17.7783V2.88059ZM2.88059 8.79322C2.88059 5.5326 5.53352 2.88059 8.79414 2.88059H14.8977V14.7068H8.79414C5.53352 14.7068 2.88059 12.0538 2.88059 8.79322ZM2.88059 23.5C2.88059 20.2394 5.53352 17.5874 8.79414 17.5874H14.8977V29.4136H8.75651C5.51332 29.3934 2.88059 26.7478 2.88059 23.5ZM14.8977 38.1113C14.8977 41.4243 12.1805 44.1194 8.84096 44.1194C5.55463 44.1194 2.88059 41.4674 2.88059 38.2068C2.88059 34.9462 5.53352 32.2932 8.79414 32.2932H14.8977V38.1113ZM23.8819 29.4136H23.6909C20.4303 29.4136 17.7783 26.7606 17.7783 23.5C17.7783 20.2394 20.4303 17.5874 23.6909 17.5874H23.8819C27.1425 17.5874 29.7954 20.2394 29.7954 23.5C29.7954 26.7606 27.1425 29.4136 23.8819 29.4136Z" fill="#A9A9B2"/>
</svg>
