<?xml version="1.0" encoding="utf-8"?>
<!-- Generator: Adobe Illustrator 27.5.0, SVG Export Plug-In . SVG Version: 6.00 Build 0)  -->
<svg version="1.1" xmlns="http://www.w3.org/2000/svg" xmlns:xlink="http://www.w3.org/1999/xlink" x="0px" y="0px"
	 viewBox="0 0 3710 3710" style="enable-background:new 0 0 3710 3710;" xml:space="preserve">
<g id="Background">
	<g>
		<g>
			<rect style="fill:#FFFFFF;" width="3710" height="3710"/>
		</g>
	</g>
</g>
<g id="Illustration">
	<g>
		<linearGradient id="SVGID_1_" gradientUnits="userSpaceOnUse" x1="3668.3162" y1="3521.4563" x2="1484.7649" y2="1562.6804">
			<stop  offset="0" style="stop-color:#B37CFF"/>
			<stop  offset="1" style="stop-color:#F895E7"/>
		</linearGradient>
		<path style="opacity:0.3;fill:url(#SVGID_1_);" d="M2940.691,2843.433c-73.582,75.846-89.012,86.772-139.42,120.43
			c-491.622,328.26-1202.972,248.918-1376.722,216.58c-280.323-52.174-417.99-70.593-621.299-254.274
			c-461.979-417.38-439.509-1288.065-86.501-1827.417c41.856-63.952,388.17-560.158,951.364-633.779
			c13.775-1.801,666.235-87.958,1106.465,280.867c63.017,52.795,164.429,148.025,258.471,293.266
			C3376.91,1570.17,3378,2392.673,2940.691,2843.433z"/>
		<g>
			
				<linearGradient id="SVGID_00000052799109167123548290000007147893359254091924_" gradientUnits="userSpaceOnUse" x1="1925.4445" y1="3381.3508" x2="1891.573" y2="2710.7014">
				<stop  offset="0" style="stop-color:#2B3582"/>
				<stop  offset="1" style="stop-color:#150E42"/>
			</linearGradient>
			<polygon style="fill:url(#SVGID_00000052799109167123548290000007147893359254091924_);" points="1642.391,2619.987 
				1586.135,3124.523 2238.812,3124.523 2153.8,2619.987 			"/>
			
				<linearGradient id="SVGID_00000176004964874332621320000004156763597127683237_" gradientUnits="userSpaceOnUse" x1="429.1894" y1="2060.8711" x2="3268.126" y2="2060.8711">
				<stop  offset="0" style="stop-color:#2B3582"/>
				<stop  offset="1" style="stop-color:#150E42"/>
			</linearGradient>
			<path style="fill:url(#SVGID_00000176004964874332621320000004156763597127683237_);" d="M429.189,1388.473v1259.144
				c0,103.582,82.542,188.286,186.089,190.957c459.901,11.859,2068.412,40.615,2506.206,34.161
				c75.245-1.109,136.201-61.323,138.372-136.545c8.442-292.516,22.153-995.92-28.585-1322.483
				c-10.685-68.771-68.733-120.196-138.294-122.421c-385.339-12.327-2090.466-51.47-2528.056-41.642
				C489.452,1251.337,429.189,1312.984,429.189,1388.473z"/>
			
				<linearGradient id="SVGID_00000060024381802048333870000005345188679748435845_" gradientUnits="userSpaceOnUse" x1="2008.9843" y1="912.5984" x2="1594.2341" y2="3545.3523">
				<stop  offset="0" style="stop-color:#FDF53F"/>
				<stop  offset="1" style="stop-color:#D93C65"/>
			</linearGradient>
			<path style="fill:url(#SVGID_00000060024381802048333870000005345188679748435845_);" d="M508.197,1382.343v1196.274
				c0,60.476,48.547,109.753,109.016,110.658l2441.288,30.161c59.951,0.896,109.094-47.337,109.317-107.295l4.084-1185.585
				c0.16-42.871-33.996-77.999-76.854-79.041l-2499.426-50.495C547.686,1295.854,508.197,1334.395,508.197,1382.343z"/>
			<path style="opacity:0.65;fill:#FFFFFF;" d="M3186.198,2768.263c-0.019,0-0.037,0-0.056,0l-2678-45.627
				c-1.759-0.031-3.161-1.481-3.131-3.239c0.029-1.761,1.408-3.049,3.24-3.133l2678,45.627c1.759,0.031,3.161,1.481,3.131,3.239
				C3189.352,2766.873,3187.932,2768.263,3186.198,2768.263z"/>
			
				<linearGradient id="SVGID_00000109023192110829237720000009468594344974341036_" gradientUnits="userSpaceOnUse" x1="2008.9843" y1="912.5984" x2="1594.2341" y2="3545.3523">
				<stop  offset="0" style="stop-color:#FDF53F"/>
				<stop  offset="1" style="stop-color:#D93C65"/>
			</linearGradient>
			<path style="fill:url(#SVGID_00000109023192110829237720000009468594344974341036_);" d="M508.197,1382.343v1196.274
				c0,60.476,48.547,109.753,109.016,110.658l2441.288,30.161c59.951,0.896,109.094-47.337,109.317-107.295l4.084-1185.585
				c0.16-42.871-33.996-77.999-76.854-79.041l-2499.426-50.495C547.686,1295.854,508.197,1334.395,508.197,1382.343z"/>
			<path style="opacity:0.65;fill:#FFFFFF;" d="M1873.615,2823.992c-17.122,0-31.05-13.928-31.05-31.049
				c0-17.124,13.928-31.052,31.05-31.052c17.12,0,31.049,13.928,31.049,31.052
				C1904.663,2810.064,1890.735,2823.992,1873.615,2823.992z M1873.615,2768.263c-13.608,0-24.679,11.072-24.679,24.68
				c0,13.608,11.071,24.677,24.679,24.677c13.606,0,24.677-11.069,24.677-24.677
				C1898.292,2779.335,1887.221,2768.263,1873.615,2768.263z"/>
			
				<linearGradient id="SVGID_00000039838714069769891110000009337522268116978070_" gradientUnits="userSpaceOnUse" x1="1927.5524" y1="3128.2878" x2="1615.9369" y2="3812.4863">
				<stop  offset="0" style="stop-color:#2B3582"/>
				<stop  offset="1" style="stop-color:#150E42"/>
			</linearGradient>
			<path style="fill:url(#SVGID_00000039838714069769891110000009337522268116978070_);" d="M2379.398,3227.75h-955.237
				c-25.951,0-45.439-18.474-40.421-38.319l12.257-48.475c3.686-14.578,19.724-25.281,38.773-25.875l920.883-28.735
				c19.901-0.621,37.522,9.943,41.858,25.093l22.097,77.211C2425.349,3208.71,2405.768,3227.75,2379.398,3227.75z"/>
			<path style="fill:#FFFFFF;" d="M1938.382,3128.285c-1.738,0-3.158-1.397-3.184-3.139c-0.025-1.761,1.38-3.208,3.139-3.232
				l39.461-0.576c1.711-0.05,3.206,1.381,3.232,3.139c0.025,1.761-1.38,3.208-3.139,3.232l-39.461,0.576
				C1938.414,3128.285,1938.397,3128.285,1938.382,3128.285z"/>
			<path style="fill:#FFFFFF;" d="M1419.104,3201.097c-0.166,0-0.336-0.012-0.505-0.041c-1.738-0.277-2.921-1.91-2.643-3.646
				l5.63-35.258c3.03-18.984,19.18-32.962,38.399-33.245l418.545-6.119c1.795,0.124,3.206,1.378,3.232,3.139
				c0.025,1.761-1.38,3.208-3.139,3.232l-418.545,6.12c-16.117,0.237-29.66,11.959-32.201,27.875l-5.63,35.258
				C1421.996,3199.98,1420.643,3201.097,1419.104,3201.097z"/>
		</g>
		<path style="opacity:0.5;fill:#FFFFFF;" d="M2877.263,2689.446l-2107.795-24.29c-61.302-0.707-110.636-52.078-110.636-115.204
			V1771.47c0-64.351,51.192-116.226,113.679-115.196l2107.795,34.743c61.088,1.007,110.097,52.286,110.097,115.196v768.029
			C2990.404,2638.375,2939.543,2690.163,2877.263,2689.446z"/>
		<path style="opacity:0.78;fill:#FFFFFF;" d="M2938.49,1635.846l-2225.655-21.413c-28.034-0.27-50.567-16.987-50.567-37.517v-76.56
			c0-20.95,23.43-37.841,52.038-37.515l2225.655,25.364c27.985,0.319,50.443,17.021,50.443,37.515v72.609
			C2990.404,1619.244,2967.05,1636.121,2938.49,1635.846z"/>
		<path style="opacity:0.78;fill:#FFFFFF;" d="M2129.825,2584.158l-1264.936-17.636c-52.334-0.73-94.438-43.246-94.659-95.584
			l-2.633-625.497c-0.224-53.176,42.821-96.402,95.997-96.402h1267.569c53.018,0,95.998,42.98,95.998,95.998v643.133
			C2227.161,2541.711,2183.362,2584.904,2129.825,2584.158z"/>
		<path style="opacity:0.78;fill:#FFFFFF;" d="M2875.311,2146.583h-519.939c-29.07,0-52.636-23.566-52.636-52.636v-291.103
			c0-29.523,24.277-53.272,53.792-52.623l519.939,11.427c28.612,0.629,51.479,24.004,51.479,52.623v279.676
			C2927.947,2123.017,2904.381,2146.583,2875.311,2146.583z"/>
		<path style="opacity:0.78;fill:#FFFFFF;" d="M2877.546,2578.242h-524.41c-27.835,0-50.4-22.565-50.4-50.4v-296.744
			c0-27.835,22.565-50.4,50.4-50.4h524.41c27.835,0,50.4,22.565,50.4,50.4v296.744
			C2927.947,2555.677,2905.382,2578.242,2877.546,2578.242z"/>
		<g>
			<g>
				
					<linearGradient id="SVGID_00000164483852824642880280000004548313560189521833_" gradientUnits="userSpaceOnUse" x1="569.5227" y1="3211.5986" x2="678.6247" y2="3211.5986">
					<stop  offset="0" style="stop-color:#2B3582"/>
					<stop  offset="1" style="stop-color:#150E42"/>
				</linearGradient>
				<path style="fill:url(#SVGID_00000164483852824642880280000004548313560189521833_);" d="M584.711,3173.154
					c0,0-12.124,19.11-15.173,72.614c-0.284,4.985,3.665,9.232,8.658,9.232h94.818c3.815,0,6.538-3.741,5.316-7.355
					c-5.556-16.445-22.356-56.538-59.841-79.448L584.711,3173.154z"/>
				
					<linearGradient id="SVGID_00000176037292356862031430000018146462338321581228_" gradientUnits="userSpaceOnUse" x1="580.5899" y1="3160.9001" x2="624.8382" y2="3160.9001">
					<stop  offset="0" style="stop-color:#F9B776"/>
					<stop  offset="1" style="stop-color:#F47960"/>
				</linearGradient>
				<path style="fill:url(#SVGID_00000176037292356862031430000018146462338321581228_);" d="M580.59,3136.9l5.363,44.968
					c0.463,3.879,3.503,6.985,7.385,7.432c5.186,0.598,12.724,1.018,20.049-0.19c6.659-1.098,11.451-7.03,11.451-13.778v-43.417
					L580.59,3136.9z"/>
				
					<linearGradient id="SVGID_00000021825293907484841940000011342229205978219942_" gradientUnits="userSpaceOnUse" x1="801.5406" y1="3209.8542" x2="972.7255" y2="3209.8542">
					<stop  offset="0" style="stop-color:#2B3582"/>
					<stop  offset="1" style="stop-color:#150E42"/>
				</linearGradient>
				<path style="fill:url(#SVGID_00000021825293907484841940000011342229205978219942_);" d="M819.307,3168.197
					c0,0-18.148,28.209-17.76,66.929c0.091,9.12,7.727,16.385,16.848,16.385h147.262c6.895,0,9.695-8.861,4.052-12.824
					c-27.866-19.568-82.637-56.123-122.251-70.49H819.307z"/>
				
					<linearGradient id="SVGID_00000127765206360065767790000018283513951296476079_" gradientUnits="userSpaceOnUse" x1="804.1412" y1="3141.2524" x2="848.1453" y2="3141.2524">
					<stop  offset="0" style="stop-color:#F9B776"/>
					<stop  offset="1" style="stop-color:#F47960"/>
				</linearGradient>
				<path style="fill:url(#SVGID_00000127765206360065767790000018283513951296476079_);" d="M804.141,3119.633l11.439,55.537
					c1.28,6.211,7.356,10.388,13.546,9.007c3.763-0.84,8.203-2.449,12.946-5.415c4.508-2.818,6.793-8.181,5.872-13.418
					l-11.832-67.282L804.141,3119.633z"/>
				
					<linearGradient id="SVGID_00000065051865832529155640000018005406579533320606_" gradientUnits="userSpaceOnUse" x1="1641.4347" y1="2025.8236" x2="363.0026" y2="3030.3049">
					<stop  offset="0" style="stop-color:#53D8FF"/>
					<stop  offset="1" style="stop-color:#3840F7"/>
				</linearGradient>
				<path style="fill:url(#SVGID_00000065051865832529155640000018005406579533320606_);" d="M601.601,2347.476
					c0,0-39.774,35.065-47.258,77.253c-7.486,42.188,21.207,727.881,21.207,727.881s39.772,6.617,60.274-5.806
					c0,0,24.317-445.01,42.8-547.841c0,0,96.933,460.971,123.791,544.263c0,0,38.316,4.661,50.673-2.63
					c0,0-25.392-597.548-57.297-703.783L601.601,2347.476z"/>
				
					<linearGradient id="SVGID_00000118366044097581317640000003451716606347644086_" gradientUnits="userSpaceOnUse" x1="680.0927" y1="2511.793" x2="1359.4882" y2="1949.2827">
					<stop  offset="0" style="stop-color:#53D8FF"/>
					<stop  offset="1" style="stop-color:#3840F7"/>
				</linearGradient>
				<path style="fill:url(#SVGID_00000118366044097581317640000003451716606347644086_);" d="M677.463,2584.5
					c-1.918,0-3.669-1.288-4.173-3.229l-16.467-63.175l-35.079-22.502c-2.006-1.288-2.591-3.959-1.303-5.965
					c1.288-2.01,3.952-2.595,5.966-1.303l36.5,23.415c0.913,0.585,1.575,1.494,1.846,2.545l16.892,64.807
					c0.604,2.308-0.78,4.666-3.088,5.266C678.19,2584.454,677.826,2584.5,677.463,2584.5z"/>
				
					<linearGradient id="SVGID_00000096059991028094548810000002606104667409453478_" gradientUnits="userSpaceOnUse" x1="1194.3049" y1="1485.9535" x2="799.8169" y2="2347.9834">
					<stop  offset="0" style="stop-color:#CB236D"/>
					<stop  offset="1" style="stop-color:#4C246D"/>
				</linearGradient>
				<path style="fill:url(#SVGID_00000096059991028094548810000002606104667409453478_);" d="M994.097,1951.269
					c-167.433-13.9-211.193,20.748-211.193,20.748l80.462,127.027c0,0,164.519-3.25,282.404-94.109
					c-22.063-23.761-37.385-50.019-47.212-70.464C1068.159,1947.104,1033.153,1954.511,994.097,1951.269z"/>
				
					<linearGradient id="SVGID_00000167359055627117096820000003343937168260987541_" gradientUnits="userSpaceOnUse" x1="1098.5577" y1="1852.757" x2="1262.0986" y2="1852.757">
					<stop  offset="0" style="stop-color:#F9B776"/>
					<stop  offset="1" style="stop-color:#F47960"/>
				</linearGradient>
				<path style="fill:url(#SVGID_00000167359055627117096820000003343937168260987541_);" d="M1256.295,1705.501
					c-0.226-5.365-7.497-6.825-9.776-1.962l-21.365,45.59c-4.128,8.809-5.451,18.672-3.791,28.257l7.494,26.535
					c2.242,12.94-1.139,26.199-9.342,36.455c-19.63,24.542-61.439,69.364-120.958,94.095c9.827,20.445,25.149,46.703,47.212,70.464
					c43.254-33.338,80.239-78.456,100.503-139.556c9.709-2.982,16.196-12.123,15.81-22.272L1256.295,1705.501z"/>
				
					<linearGradient id="SVGID_00000120539039116273661790000001025671784611276442_" gradientUnits="userSpaceOnUse" x1="948.0944" y1="1808.8076" x2="858.5727" y2="2656.6345">
					<stop  offset="0" style="stop-color:#CB236D"/>
					<stop  offset="1" style="stop-color:#4C246D"/>
				</linearGradient>
				<path style="fill:url(#SVGID_00000120539039116273661790000001025671784611276442_);" d="M1049.211,2024.915
					c-58.943-63.513-171.215-92.209-236.218-103.996c-28.478-5.164-56.55,10.683-66.64,37.808
					c-29.252,78.635-108.811,283.215-124.231,318.375c-12.651,28.846-25.861,57.018-34.255,74.633
					c-5.015,10.522-0.633,23.114,9.868,28.174c54.689,26.361,153.097,56.185,192.992,67.82c8.776,2.56,17.514-4.03,17.514-13.17
					c0-7.752,2.107-15.361,6.096-22.007l151.095-251.787c94.175,104.421,176.648,113.969,240.004,91.113
					c-10.653-32.923-17.624-65.907-20.967-98.954C1090.873,2136.892,1049.211,2024.915,1049.211,2024.915z"/>
				
					<linearGradient id="SVGID_00000083080092863920101580000010215097030368764854_" gradientUnits="userSpaceOnUse" x1="1468.8696" y1="1888.4111" x2="1115.5018" y2="2328.0347">
					<stop  offset="0" style="stop-color:#F9B776"/>
					<stop  offset="1" style="stop-color:#F47960"/>
				</linearGradient>
				<path style="fill:url(#SVGID_00000083080092863920101580000010215097030368764854_);" d="M1339.172,2135.401l-16.892-22.522
					c-54.684,37.556-100.393,46.458-137.811,40.046c3.343,33.047,10.314,66.031,20.967,98.954
					C1288.901,2221.77,1339.172,2135.401,1339.172,2135.401z"/>
				
					<linearGradient id="SVGID_00000160156852351943968120000008663701375853925025_" gradientUnits="userSpaceOnUse" x1="1535.8657" y1="1942.2625" x2="1182.4983" y2="2381.8853">
					<stop  offset="0" style="stop-color:#F9B776"/>
					<stop  offset="1" style="stop-color:#F47960"/>
				</linearGradient>
				<path style="fill:url(#SVGID_00000160156852351943968120000008663701375853925025_);" d="M1327.262,2135.809l95.161,3.71
					l87.616-48.935c-12.577-7.883-83.696,8.23-83.696,8.23s-74.347-11.244-94.469-11.271c-16.713-0.022-14.325,24.011-13.036,32.156
					c0.263,1.662,0.48,2.662,0.48,2.662L1327.262,2135.809z"/>
				
					<linearGradient id="SVGID_00000094594880234344009940000003122230872175845049_" gradientUnits="userSpaceOnUse" x1="1071.329" y1="1622.7269" x2="729.092" y2="2251.5537">
					<stop  offset="0" style="stop-color:#F9B776"/>
					<stop  offset="1" style="stop-color:#F47960"/>
				</linearGradient>
				<path style="fill:url(#SVGID_00000094594880234344009940000003122230872175845049_);" d="M902.402,1804.274l-50.209,122.521
					c0,0,57.69,39.931,104.104,36.131l25.058-110.169L902.402,1804.274z"/>
				<g>
					
						<linearGradient id="SVGID_00000177459592062901762900000013728128625504486294_" gradientUnits="userSpaceOnUse" x1="613.7989" y1="4309.7349" x2="462.549" y2="4509.8262" gradientTransform="matrix(0.817 -0.5767 0.5767 0.817 -2023.4279 -1428.4956)">
						<stop  offset="0" style="stop-color:#F9B776"/>
						<stop  offset="1" style="stop-color:#F47960"/>
					</linearGradient>
					<path style="fill:url(#SVGID_00000177459592062901762900000013728128625504486294_);" d="M987.216,1720.748
						c1.15,1.63,36.324,128.697,36.324,128.697l-72.98,18.542l-51.23-115.481C899.329,1752.505,967.964,1693.474,987.216,1720.748z"
						/>
					
						<linearGradient id="SVGID_00000085217383930572086210000000034818092716007615_" gradientUnits="userSpaceOnUse" x1="498.2876" y1="4358.0015" x2="678.9579" y2="4358.0015" gradientTransform="matrix(0.817 -0.5767 0.5767 0.817 -2023.4279 -1428.4956)">
						<stop  offset="0" style="stop-color:#2B3582"/>
						<stop  offset="1" style="stop-color:#150E42"/>
					</linearGradient>
					<path style="fill:url(#SVGID_00000085217383930572086210000000034818092716007615_);" d="M926.811,1770.051l22.208,62.903
						c0.285,0.807,0.666,1.553,1.159,2.253c3.014,4.282,14.462,18.253,28.043,5.668c12.322-11.42,23.738-21.658,34.281-23.517
						c4.733-0.834,9.318,2.054,10.6,6.687c3.193,11.546,9.906,37.697,12.272,61.306c0.48,4.791-2.828,9.121-7.558,10.02
						c-14.254,2.707-44.476,7.575-69.707,5.796c-3.419-0.241-6.427-2.292-7.853-5.408c-6.953-15.194-28.257-61.293-36.181-73.221
						c-7.437-11.196-25.669-10.881-33.315-10.204c-2.506,0.222-4.971-0.585-6.864-2.244c-6.689-5.864-19.42-20.833-1.512-38.753
						c3.748-3.751,3.647-9.801-0.216-13.433c-7.69-7.231-15.915-20.055-3.102-35.96c13.023-16.167,30.215-13.594,40.747-9.75
						c4.26,1.554,8.905-0.246,11.22-4.144c1.318-2.219,3.617-3.898,7.603-3.555c5.372,0.462,9.889-4.021,9.792-9.412
						c-0.186-10.357,3.522-23.442,21.489-29.034c31.881-9.922,51.761,20.877,53.731,43.86c1.969,22.982-33.208,31.775-53.892,30.225
						c-15.727-1.178-27.404,14.41-32.097,21.949C926.171,1764.469,925.874,1767.397,926.811,1770.051z"/>
					
						<linearGradient id="SVGID_00000062182641038050403760000012624032424331420348_" gradientUnits="userSpaceOnUse" x1="392.2774" y1="4468.1909" x2="513.592" y2="4343.7251" gradientTransform="matrix(0.817 -0.5767 0.5767 0.817 -2023.4279 -1428.4956)">
						<stop  offset="0" style="stop-color:#F9B776"/>
						<stop  offset="1" style="stop-color:#F47960"/>
					</linearGradient>
					<path style="fill:url(#SVGID_00000062182641038050403760000012624032424331420348_);" d="M922.388,1845.359
						c0,0-5.15-39.899-21.748-41.853c-16.597-1.955-32.752,11.685-16.251,34.08C904.915,1865.442,922.388,1845.359,922.388,1845.359
						z"/>
				</g>
			</g>
			<g>
				
					<linearGradient id="SVGID_00000073687786180679869260000006887958361054476478_" gradientUnits="userSpaceOnUse" x1="2200.2314" y1="1198.1344" x2="453.3133" y2="3818.5083">
					<stop  offset="0" style="stop-color:#53D8FF"/>
					<stop  offset="1" style="stop-color:#3840F7"/>
				</linearGradient>
				<path style="fill:url(#SVGID_00000073687786180679869260000006887958361054476478_);" d="M1297.538,1542.25l969.17-6.109
					c22.191-0.14,40.211,16.801,40.042,37.644l-4.079,502.799c-0.17,20.961-18.663,37.688-40.969,37.059l-958.677-27.062
					c-21.294-0.601-38.305-16.855-38.578-36.864l-6.415-469.628C1257.749,1559.367,1275.475,1542.389,1297.538,1542.25z"/>
				<path style="fill:#FFFFFF;" d="M2262.921,2082.985l-958.901-27.067c-3.708-0.098-6.655-2.989-6.71-6.59l-6.415-469.631
					c-0.026-1.852,0.68-3.524,2.04-4.833c1.326-1.262,2.985-1.929,4.82-1.942l969.178-6.111c1.873,0,3.545,0.654,4.867,1.895
					c1.381,1.309,2.1,2.985,2.083,4.854l-4.075,502.788C2269.772,2080.009,2266.684,2082.985,2262.921,2082.985z M2267.441,1573.504
					l-969.64,5.859l5.949,469.871l0.449,0.244l958.811,27.067L2267.441,1573.504z"/>
				<path style="fill:#FFFFFF;" d="M1353.442,1642.522c0,16.215,10.054,29.36,22.457,29.36h824.318
					c12.402,0,22.457-13.145,22.457-29.36c0-16.216-10.054-29.36-22.457-29.36h-824.318
					C1363.496,1613.162,1353.442,1626.306,1353.442,1642.522z"/>
				<path style="fill:#FFFFFF;" d="M1357.483,1702.879h347.056c12.287,0,22.247,9.355,22.247,20.895v269.134
					c0,11.767-10.34,21.214-22.863,20.887l-339.953-8.854c-11.821-0.308-21.32-9.248-21.623-20.352l-7.102-260.281
					C1334.923,1712.563,1344.973,1702.879,1357.483,1702.879z"/>
				<path style="fill:#FFFFFF;" d="M1799.21,1709.498h387.403c8.429,0,15.262,7.884,15.262,17.609s-6.833,17.608-15.262,17.608
					H1799.21c-8.429,0-15.262-7.883-15.262-17.608S1790.781,1709.498,1799.21,1709.498z"/>
				<path style="fill:#FFFFFF;" d="M1783.948,1802.505c0,9.707,6.82,17.576,15.233,17.576h387.459
					c8.414,0,15.234-7.869,15.234-17.576v-10.865c0-9.874-7.048-17.811-15.604-17.57l-387.459,10.865
					C1790.545,1785.166,1783.948,1792.964,1783.948,1802.505z"/>
			</g>
		</g>
		<g>
			
				<linearGradient id="SVGID_00000075866304903116700170000003410042261458529451_" gradientUnits="userSpaceOnUse" x1="-852.0619" y1="1418.0508" x2="-991.7596" y2="1846.2534" gradientTransform="matrix(0.7738 -0.6335 0.6335 0.7738 2385.0835 -47.8667)">
				<stop  offset="0" style="stop-color:#F9B776"/>
				<stop  offset="1" style="stop-color:#F47960"/>
			</linearGradient>
			<path style="fill:url(#SVGID_00000075866304903116700170000003410042261458529451_);" d="M2574.228,1749.324
				c0,0,6.341,275.997,296.539,324.397l52.097-51.43c0,0-251.292-85.439-316.704-263.991l13.972-94.691l-9.847-62.665
				L2574.228,1749.324z"/>
			<g>
				
					<linearGradient id="SVGID_00000051354349659800388140000006768559486062041023_" gradientUnits="userSpaceOnUse" x1="3017.2852" y1="602.9776" x2="1450.9789" y2="2197.5581">
					<stop  offset="0" style="stop-color:#CE1567"/>
					<stop  offset="1" style="stop-color:#7A1DBC"/>
				</linearGradient>
				<path style="fill:url(#SVGID_00000051354349659800388140000006768559486062041023_);" d="M3070.296,1644.241l-1151.314,28.181
					c-46.672,1.142-86.554-33.411-92.071-79.771L1735.506,824.6c-6.222-52.277,33.325-98.809,85.922-101.099l1223.304-53.257
					c50.603-2.203,93.161,37.555,94.4,88.191l19.413,793.129C3159.768,1601.524,3120.257,1643.018,3070.296,1644.241z"/>
				<path style="opacity:0.19;fill:#FFFFFF;" d="M3023.633,1603.836l-1063.24,26.025c-43.102,1.055-79.914-30.118-84.986-71.967
					l-84.021-693.318c-5.719-47.19,30.825-89.218,79.399-91.312l1129.735-48.699c46.732-2.015,86.014,33.856,87.133,79.567
					l17.525,715.994C3106.281,1565.228,3069.772,1602.707,3023.633,1603.836z"/>
				
					<linearGradient id="SVGID_00000165951967744899145090000009429273628089748910_" gradientUnits="userSpaceOnUse" x1="2604.2637" y1="-305.2234" x2="2502.4807" y2="390.2879">
					<stop  offset="0" style="stop-color:#CE1567"/>
					<stop  offset="1" style="stop-color:#7A1DBC"/>
				</linearGradient>
				<path style="fill:url(#SVGID_00000165951967744899145090000009429273628089748910_);" d="M1744.761,884.976l1398.37-62.722
					l-1.556-61.935c-1.24-50.636-43.842-91.389-94.446-89.186l-1223.326,52.759c-52.596,2.29-92.065,50.565-85.844,102.842
					L1744.761,884.976z"/>
				<path style="opacity:0.52;fill:#FFFFFF;" d="M2270.176,1414.585l-316.348,14.19c-10.755,0.482-20.925-27.216-23.249-63.317
					l-18.499-287.42c-2.549-39.602,5.286-73.598,17.084-74.127l321.944-14.441c11.273-0.506,21.792,29.852,23.494,67.806
					l12.903,287.671C2289.207,1382.901,2281.448,1414.079,2270.176,1414.585z"/>
				
					<linearGradient id="SVGID_00000063610096119175042250000014784336805380942767_" gradientUnits="userSpaceOnUse" x1="4328.5347" y1="-400.932" x2="3947.6548" y2="1289.949" gradientTransform="matrix(0.675 0.0146 0.0146 0.9993 -54.1949 2.289)">
					<stop  offset="0" style="stop-color:#B37CFF"/>
					<stop  offset="1" style="stop-color:#F895E7"/>
				</linearGradient>
				<path style="opacity:0.81;fill:url(#SVGID_00000063610096119175042250000014784336805380942767_);" d="M3036.499,1015.217
					l-717.466,32.181c-3.365,0.151-6.216-2.455-6.366-5.82l-1.722-38.387c-0.151-3.365,2.455-6.215,5.82-6.366l717.466-32.181
					c3.365-0.151,6.216,2.455,6.366,5.82l1.722,38.387C3042.469,1012.216,3039.864,1015.066,3036.499,1015.217z"/>
				
					<linearGradient id="SVGID_00000005247607886156452460000000938478679473564069_" gradientUnits="userSpaceOnUse" x1="4341.9224" y1="-221.085" x2="3961.0427" y2="1469.796" gradientTransform="matrix(0.675 0.0146 0.0146 0.9993 -54.1949 2.289)">
					<stop  offset="0" style="stop-color:#B37CFF"/>
					<stop  offset="1" style="stop-color:#F895E7"/>
				</linearGradient>
				<path style="opacity:0.81;fill:url(#SVGID_00000005247607886156452460000000938478679473564069_);" d="M3048.161,1195.134
					l-717.466,32.181c-3.365,0.151-6.215-2.455-6.366-5.82l-1.722-38.387c-0.151-3.365,2.455-6.215,5.82-6.366l717.466-32.181
					c3.365-0.151,6.215,2.455,6.366,5.82l1.722,38.387C3054.132,1192.133,3051.526,1194.983,3048.161,1195.134z"/>
				
					<linearGradient id="SVGID_00000066481014013679693860000009274934346200803774_" gradientUnits="userSpaceOnUse" x1="2507.9033" y1="70.6617" x2="2123.238" y2="1778.348">
					<stop  offset="0" style="stop-color:#B37CFF"/>
					<stop  offset="1" style="stop-color:#F895E7"/>
				</linearGradient>
				<path style="opacity:0.81;fill:url(#SVGID_00000066481014013679693860000009274934346200803774_);" d="M2711.588,938.014
					l-792.467,35.545c-3.365,0.151-6.215-2.455-6.366-5.82l-1.722-38.387c-0.151-3.365,2.455-6.215,5.82-6.366l792.467-35.545
					c3.365-0.151,6.215,2.455,6.366,5.82l1.722,38.387C2717.559,935.013,2714.953,937.863,2711.588,938.014z"/>
				
					<linearGradient id="SVGID_00000176758233296566760020000001900823806023909029_" gradientUnits="userSpaceOnUse" x1="4351.605" y1="-397.5308" x2="3970.7253" y2="1293.3501" gradientTransform="matrix(0.675 0.0146 0.0146 0.9993 -54.1949 2.289)">
					<stop  offset="0" style="stop-color:#B37CFF"/>
					<stop  offset="1" style="stop-color:#F895E7"/>
				</linearGradient>
				<path style="opacity:0.81;fill:url(#SVGID_00000176758233296566760020000001900823806023909029_);" d="M3040.457,1103.474
					l-717.466,32.181c-3.365,0.151-6.215-2.455-6.366-5.82l-1.722-38.387c-0.151-3.365,2.455-6.215,5.82-6.366l717.466-32.181
					c3.365-0.151,6.215,2.455,6.366,5.82l1.722,38.387C3046.428,1100.472,3043.823,1103.323,3040.457,1103.474z"/>
				
					<linearGradient id="SVGID_00000021087665032881286350000003031100606938089376_" gradientUnits="userSpaceOnUse" x1="4347.2368" y1="-127.9702" x2="3966.3572" y2="1562.9106" gradientTransform="matrix(0.675 0.0146 0.0146 0.9993 -54.1949 2.289)">
					<stop  offset="0" style="stop-color:#B37CFF"/>
					<stop  offset="1" style="stop-color:#F895E7"/>
				</linearGradient>
				<path style="opacity:0.81;fill:url(#SVGID_00000021087665032881286350000003031100606938089376_);" d="M3053.108,1288.261
					l-717.466,32.181c-3.365,0.151-6.215-2.455-6.366-5.82l-1.722-38.387c-0.151-3.365,2.455-6.215,5.82-6.366l717.466-32.181
					c3.365-0.151,6.216,2.455,6.366,5.82l1.722,38.387C3059.079,1285.26,3056.473,1288.11,3053.108,1288.261z"/>
				
					<linearGradient id="SVGID_00000176761732819551532960000003055408178947078326_" gradientUnits="userSpaceOnUse" x1="4360.625" y1="51.8769" x2="3979.7451" y2="1742.7578" gradientTransform="matrix(0.675 0.0146 0.0146 0.9993 -54.1949 2.289)">
					<stop  offset="0" style="stop-color:#B37CFF"/>
					<stop  offset="1" style="stop-color:#F895E7"/>
				</linearGradient>
				<path style="opacity:0.81;fill:url(#SVGID_00000176761732819551532960000003055408178947078326_);" d="M3064.771,1468.178
					l-717.466,32.181c-3.365,0.151-6.215-2.455-6.366-5.82l-1.722-38.387c-0.151-3.365,2.455-6.215,5.82-6.366l717.466-32.181
					c3.365-0.151,6.216,2.455,6.366,5.82l1.722,38.387C3070.741,1465.176,3068.136,1468.027,3064.771,1468.178z"/>
				
					<linearGradient id="SVGID_00000056391894556934108530000001905695382743828877_" gradientUnits="userSpaceOnUse" x1="4370.3076" y1="-124.5692" x2="3989.4277" y2="1566.3118" gradientTransform="matrix(0.675 0.0146 0.0146 0.9993 -54.1949 2.289)">
					<stop  offset="0" style="stop-color:#B37CFF"/>
					<stop  offset="1" style="stop-color:#F895E7"/>
				</linearGradient>
				<path style="opacity:0.81;fill:url(#SVGID_00000056391894556934108530000001905695382743828877_);" d="M3057.067,1376.517
					l-717.466,32.181c-3.365,0.151-6.215-2.455-6.366-5.82l-1.722-38.387c-0.151-3.365,2.455-6.215,5.82-6.366l717.466-32.181
					c3.365-0.151,6.215,2.455,6.366,5.82l1.722,38.387C3063.037,1373.516,3060.432,1376.366,3057.067,1376.517z"/>
				<circle style="opacity:0.37;fill:#FFFFFF;" cx="1850.095" cy="808.4" r="25.642"/>
				
					<ellipse transform="matrix(0.6747 -0.7381 0.7381 0.6747 34.1854 1687.1)" style="opacity:0.37;fill:#FFFFFF;" cx="1931.113" cy="804.766" rx="25.642" ry="25.642"/>
				<circle style="opacity:0.37;fill:#FFFFFF;" cx="2023.865" cy="800.606" r="25.642"/>
			</g>
			
				<linearGradient id="SVGID_00000075144988207717787410000008953104913709497788_" gradientUnits="userSpaceOnUse" x1="-100.0241" y1="2932.5557" x2="157.3534" y2="2932.5557" gradientTransform="matrix(1 0 0 1 3169.7083 0)">
				<stop  offset="0" style="stop-color:#F9B776"/>
				<stop  offset="1" style="stop-color:#F47960"/>
			</linearGradient>
			<path style="fill:url(#SVGID_00000075144988207717787410000008953104913709497788_);" d="M2854.812,2694.958
				c0,0,137.682,300.082,209.919,424.374c0,0,14.347,78.207,0,102.801l-12.227,5.435l57.064-1.698c0,0,5.069-105.197,1.111-111.073
				c-3.959-5.876-11.878-5.491-11.878-5.491s-24.468-193.854-95.331-235.226l-68.674-236.534L2854.812,2694.958z"/>
			
				<linearGradient id="SVGID_00000051344729291360688220000009247136188984708505_" gradientUnits="userSpaceOnUse" x1="38.8755" y1="2356.9814" x2="-88.5857" y2="3185.4756" gradientTransform="matrix(1 0 0 1 3169.7083 0)">
				<stop  offset="0" style="stop-color:#2B3582"/>
				<stop  offset="1" style="stop-color:#150E42"/>
			</linearGradient>
			<path style="fill:url(#SVGID_00000051344729291360688220000009247136188984708505_);" d="M3028.132,3242.3
				c-0.084,1.376,44.559,0.747,68.811,0.305c8.954-0.164,16.589-6.457,18.497-15.208l18.314-96.218
				c1.741-9.144-4.066-18.025-13.139-20.099l-10.223-2.336c0,0-14.583,20.005-9.993,38.839c4.591,18.834,8.676,67.622-2.925,73.307
				c-11.601,5.685-44.972,6.678-44.972,6.678S3028.895,3229.908,3028.132,3242.3z"/>
			
				<linearGradient id="SVGID_00000125571173233753941880000010477229195148458681_" gradientUnits="userSpaceOnUse" x1="-230.8193" y1="2315.4927" x2="-358.2807" y2="3143.988" gradientTransform="matrix(1 0 0 1 3169.7083 0)">
				<stop  offset="0" style="stop-color:#2B3582"/>
				<stop  offset="1" style="stop-color:#150E42"/>
			</linearGradient>
			<path style="fill:url(#SVGID_00000125571173233753941880000010477229195148458681_);" d="M2724.313,3244.046
				c-4.515,2.573-2.653,9.467,2.543,9.414c40.584-0.407,131.524-1.692,139.605-5.052c10.433-4.338-3.802-41.828-18.783-54.516
				l-82.72,26.998L2724.313,3244.046z"/>
			
				<linearGradient id="SVGID_00000004542144077494572490000005724889191970937243_" gradientUnits="userSpaceOnUse" x1="-216.618" y1="2951.6934" x2="-67.5754" y2="2951.6934" gradientTransform="matrix(1 0 0 1 3169.7083 0)">
				<stop  offset="0" style="stop-color:#F9B776"/>
				<stop  offset="1" style="stop-color:#F47960"/>
			</linearGradient>
			<path style="fill:url(#SVGID_00000004542144077494572490000005724889191970937243_);" d="M2698.636,2675.82
				c0,0,88.973,430.422,114.143,514.383l-59.542,37.364c0,0,29.838-5.074,51.963-6.678c22.126-1.604,42.478-26.998,42.478-26.998
				l-7.133-11.377c0,0-22.312-428.078-16.88-476.686L2698.636,2675.82z"/>
			
				<linearGradient id="SVGID_00000058572691075170056540000016453471769955147669_" gradientUnits="userSpaceOnUse" x1="-792.1365" y1="1833.4823" x2="-500.3591" y2="1833.4823" gradientTransform="matrix(1 0 0 1 3169.7083 0)">
				<stop  offset="0" style="stop-color:#F9B776"/>
				<stop  offset="1" style="stop-color:#F47960"/>
			</linearGradient>
			<path style="fill:url(#SVGID_00000058572691075170056540000016453471769955147669_);" d="M2477.773,1671.859
				c0,0-12.272,223.902,191.576,338.316l-49.078,111.932c0,0-184.558-111.63-177.733-416.089c0.196-8.738-2.956-17.222-8.662-23.842
				l-39.225-45.505c-14.944-17.337-20.53-40.857-14.974-63.062l5.163-20.638c1.729-6.909,9.598-10.234,15.757-6.657l4.102,2.383
				c13.058,7.584,23.402,19.082,29.568,32.867l19.26,43.054c7.194,16.082,23.782,25.846,41.335,24.331l11.909-1.028
				L2477.773,1671.859z"/>
			
				<linearGradient id="SVGID_00000034078839139676880310000000682537758777047994_" gradientUnits="userSpaceOnUse" x1="-602.8585" y1="1733.7109" x2="-55.8382" y2="2817.1296" gradientTransform="matrix(1 0 0 1 3169.7083 0)">
				<stop  offset="0" style="stop-color:#53D8FF"/>
				<stop  offset="1" style="stop-color:#3840F7"/>
			</linearGradient>
			<path style="fill:url(#SVGID_00000034078839139676880310000000682537758777047994_);" d="M2662.254,1993.396
				c34.104,9.458,149.641,39.851,221.77,38.609l-44.286,249.908l3.525,40.761l-144.389-0.647c0,0-40.646-94.398-72.715-141.46
				c-9.262-13.592-2.369-29.805,2.88-45.393l-7.212-4.802c-7.339-4.886-10.522-14.065-7.783-22.446l35.161-107.578
				C2651.031,1994.927,2656.74,1991.867,2662.254,1993.396z"/>
			
				<linearGradient id="SVGID_00000143584095393020935100000010730263042068704152_" gradientUnits="userSpaceOnUse" x1="2862.894" y1="2260.22" x2="2738.4871" y2="2923.7209">
				<stop  offset="0" style="stop-color:#2B3582"/>
				<stop  offset="1" style="stop-color:#150E42"/>
			</linearGradient>
			<path style="fill:url(#SVGID_00000143584095393020935100000010730263042068704152_);" d="M2687.304,2300.698l2.841,24.694
				c0,0-40.804,122.199,20.402,407.609c0,0,132.56,37.553,241.509-52.308c0,0-30.733-269.384-39.127-281.931
				c-41.812-62.5-69.665-76.087-69.665-76.087l-1.256-26.978C2842.006,2295.697,2725.478,2316.765,2687.304,2300.698z"/>
			
				<linearGradient id="SVGID_00000013163025644042669300000014113348834355074959_" gradientUnits="userSpaceOnUse" x1="-425.8899" y1="1976.7313" x2="-334.6836" y2="1976.7313" gradientTransform="matrix(1 0 0 1 3169.7083 0)">
				<stop  offset="0" style="stop-color:#F9B776"/>
				<stop  offset="1" style="stop-color:#F47960"/>
			</linearGradient>
			<path style="fill:url(#SVGID_00000013163025644042669300000014113348834355074959_);" d="M2743.825,2013.538
				c-0.507-0.669,30.145-92.539,30.145-92.539l43.904,3.983l17.152,104.221C2835.025,2029.203,2766.217,2043.092,2743.825,2013.538z
				"/>
			
				<linearGradient id="SVGID_00000039856505463718839460000008994243265878905757_" gradientUnits="userSpaceOnUse" x1="-280.9351" y1="1858.8671" x2="382.9241" y2="1904.0095" gradientTransform="matrix(1 0 0 1 3169.7083 0)">
				<stop  offset="0" style="stop-color:#F9B776"/>
				<stop  offset="1" style="stop-color:#F47960"/>
			</linearGradient>
			<path style="fill:url(#SVGID_00000039856505463718839460000008994243265878905757_);" d="M2807.362,1776.119
				c-2.927,1.823-93.818,39.385-74.29,133.745c1.154,5.576,4.875,10.302,10.075,12.622c13.338,5.949,42.052,16.136,76.396,12.646
				c47.614-4.839,78.814-87.926,77.487-112.105C2895.704,1798.849,2836.377,1758.052,2807.362,1776.119z"/>
			
				<linearGradient id="SVGID_00000155148987046288646420000009177328355371564182_" gradientUnits="userSpaceOnUse" x1="-171.8199" y1="1818.8507" x2="-405.4979" y2="2286.2056" gradientTransform="matrix(1 0 0 1 3169.7083 0)">
				<stop  offset="0" style="stop-color:#CB236D"/>
				<stop  offset="1" style="stop-color:#4C246D"/>
			</linearGradient>
			<path style="fill:url(#SVGID_00000155148987046288646420000009177328355371564182_);" d="M2835.025,1739.434
				c-2.39,0.314-52.525,17.775-27.662,54.104c24.862,36.328,34.188,57.714,22.429,73.668c-10.713,14.534-34.446,6.25-32.375,36.488
				c0.414,6.052-2.204,11.928-7.227,15.329c-22.364,15.139-76.927,61.734-22.868,128.187c4.394,5.401,5.299,12.858,1.909,18.939
				c-15.833,28.399-49.092,111.594,71.316,157.744c118.981,45.602,161.94-32.173,173.942-63.26c2.596-6.724,9.216-10.84,16.415-10.5
				c13.073,0.617,31.601-1.557,30.749-19.029c-0.517-10.612-7.138-20.122-14.964-27.747c-7.745-7.546-6.215-20.76,3.188-26.102
				c7.102-4.035,13.387-10.335,16.041-20.165c7.21-26.719-7.185-106.611-83.763-120.15c-6.387-1.129-13.077-7.118-14.007-13.538
				c-0.014-0.095-0.029-0.191-0.045-0.286c-1.026-6.208,1.074-12.557,6.148-16.279c12.227-8.97,27.909-27.029,15.173-55.989
				c-11.296-25.685-32.962-34.35-49.055-37.111c-9.449-1.621-15.661-10.557-13.669-19.935
				C2932.125,1768.248,2927.394,1727.323,2835.025,1739.434z"/>
		</g>
	</g>
</g>
</svg>
